# xmcd CD database file
#
# Track frame offsets:
#	150
#	20167
#	50930
#	69079
#	81859
#	118355
#	140092
#	170750
#	195187
#	210176
#	231190
#	251625
#	271069
#	289667
#	313541
#
# Disc length: 4593 seconds
#
# Revision: 1
# Processed by: cddbd v1.5.2PL0 Copyright (c) Steve Scherf et al.
# Submitted via: CDex 1.51
#
DISCID=dc11ef0f
DTITLE=Gil Evans - Great Jazz Standards and New Bottle, Old Wine
DYEAR=2010
DGENRE=Jazz
TTITLE0=Great Jazz Standards - Davenport Blues  . . . . .  { 1959 }
TTITLE1=Great Jazz Standards - Straight, No Chaser
TTITLE2=Great Jazz Standards - Ballad Of The Sad Young Men
TTITLE3=Great Jazz Standards - Joy Spring
TTITLE4=Great Jazz Standards - Django
TTITLE5=Great Jazz Standards - Chant Of The Weed
TTITLE6=Great Jazz Standards - La Nevada  (Theme)
TTITLE7=New Bottle, Old Wine - St. Louis Blues  . . . . . . . { 1958 }
TTITLE8=New Bottle, Old Wine - King Porter Stomp
TTITLE9=New Bottle, Old Wine - Willow Tree
TTITLE10=New Bottle, Old Wine - Struttin' With Some Barbecue
TTITLE11=New Bottle, Old Wine - Lester Leaps In
TTITLE12=New Bottle, Old Wine - 'Round Midnight
TTITLE13=New Bottle, Old Wine - Manteca
TTITLE14=New Bottle, Old Wine - Bird Feathers
EXTD=YEAR: 2010
EXTT0=
EXTT1=
EXTT2=
EXTT3=
EXTT4=
EXTT5=
EXTT6=
EXTT7=
EXTT8=
EXTT9=
EXTT10=
EXTT11=
EXTT12=
EXTT13=
EXTT14=
PLAYORDER=
